<svg width="327" height="104" viewBox="0 0 327 104" fill="none" xmlns="http://www.w3.org/2000/svg">
<path d="M72.81 59.4562C73.9678 52.8634 69.2222 46.5207 62.2105 45.2894C55.1989 44.0581 48.5763 48.4045 47.4185 54.9973C46.2608 61.5901 51.0063 67.9328 58.018 69.1641C65.0296 70.3954 71.6523 66.049 72.81 59.4562Z" fill="#022778"/>
<path d="M7.89007 0.869995C5.12007 0.869995 3.72006 3.83 5.66006 5.58C14.5601 13.64 32.8001 29.63 41.9801 34.08C54.4001 40.1 74.9601 45.84 96.7901 33.21C97.5101 32.79 98.4101 32.24 99.3201 31.67C101.79 30.12 103.25 27.6 103.25 24.92V5.13C103.25 2.77 101.1 0.860001 98.4401 0.860001H7.89007V0.869995Z" fill="#FB731D"/>
<path d="M0.530029 16.85C0.530029 15.09 2.69002 14.03 4.33002 14.99C13.12 20.14 34.37 33.91 38.2 48.44C43.3 67.83 26.9 91.14 19.88 99.96C18.07 102.23 15.16 103.58 12.06 103.58H4.62003C2.36003 103.58 0.530029 101.93 0.530029 99.9V16.84V16.85Z" fill="#FCBB01"/>
<path d="M30.86 103.58C27.73 103.58 25.86 100.47 27.55 98.1C38.59 82.63 49.8 73.39 70.47 73.39C88.86 73.39 98.8 88.98 102.04 98.19C102.98 100.86 100.75 103.57 97.64 103.57H30.86V103.58Z" fill="#2779FF"/>
<path d="M103.24 39.68C103.24 38.01 101.29 36.94 99.63 37.69C91.76 41.28 83.03 46.28 83.03 55.37C83.03 64.46 88.1 72.38 99.12 80.99C100.73 82.25 103.23 81.22 103.23 79.31V39.68H103.24Z" fill="#FF9E9D"/>
<path d="M128.92 0.869995H143.26V72.57H128.92V0.869995Z" fill="#022778"/>
<path d="M224.08 72.57H204.64L188.21 47.01H171.1V72.57H156.76V0.869995H198.39C212.21 0.869995 222.7 10.95 222.7 24.35C222.7 35.26 215.43 43.78 204.93 46.28L224.08 72.57ZM171.09 34.54H198.07C203.68 34.54 207.94 30.18 207.94 24.46C207.94 18.74 203.68 14.38 198.07 14.38H171.09V34.54Z" fill="#022778"/>
<path d="M300.32 53.14C300.32 64.47 291.7 72.57 280.27 72.57H234.03V0.869995H277.57C288.27 0.869995 296.48 8.56 296.48 19.16C296.48 25.81 293.05 31.73 288.37 34.43C295.44 36.82 300.32 44.51 300.32 53.13V53.14ZM247.95 13.75V29.54H273.93C278.29 29.54 281.83 26.11 281.83 21.64C281.83 17.17 278.4 13.74 273.93 13.74H247.95V13.75ZM285.67 50.64C285.67 45.65 281.72 41.7 276.73 41.7H247.95V59.68H276.73C281.72 59.68 285.67 55.73 285.67 50.64Z" fill="#022778"/>
<path d="M320.5 8.53C320.5 7.44 319.81 6.75999 318.52 6.75999H316.68V10.29H318.52C319.81 10.29 320.5 9.55 320.5 8.52M320.89 12.61L323.74 18.5H320.29L317.77 13.08H316.66V18.5H313.53V3.96001H319.1C321.88 3.96001 323.66 5.92999 323.66 8.50999C323.66 10.48 322.61 11.98 320.88 12.61M326.08 0.869995H310.69V27.76H326.08V0.869995Z" fill="black"/>
<path d="M144.36 99.21C144.36 101.84 142.68 103.58 138.71 103.58H129.17V87.29H138.25C142.16 87.29 143.83 89.08 143.83 91.69C143.83 93.44 143.06 94.65 141.55 95.32C143.44 96.02 144.37 97.32 144.37 99.21H144.36ZM133.03 90.62V93.83H137.92C139.29 93.83 139.97 93.29 139.97 92.22C139.97 91.15 139.3 90.61 137.92 90.61H133.03V90.62ZM138.22 100.26C139.83 100.26 140.5 99.72 140.5 98.54C140.5 97.36 139.83 96.82 138.22 96.82L133.03 96.84V100.26H138.22Z" fill="#022778"/>
<path d="M160.48 103.58L159.57 101.44H151.24L150.33 103.58H146.3L153.3 87.29H157.47L164.5 103.58H160.47H160.48ZM152.53 98.37H158.28L155.42 91.58L152.53 98.37Z" fill="#022778"/>
<path d="M182.98 103.58H179.09L176.62 98.95H171.17V103.58H167.31V87.29H176.29C180.57 87.29 182.62 89.59 182.62 93.13C182.62 95.5 181.76 97.18 180.01 98.13L182.97 103.58H182.98ZM171.18 90.72V95.54H175.83C177.88 95.54 178.76 94.75 178.76 93.14C178.76 91.53 177.88 90.72 175.83 90.72H171.18Z" fill="#022778"/>
<path d="M198.66 97.47H202.43C201.76 101.57 198.75 103.94 194.26 103.94C191.56 103.94 189.42 103.15 187.84 101.54C186.26 99.93 185.47 97.89 185.47 95.44C185.47 92.99 186.26 90.97 187.84 89.37C189.42 87.77 191.56 86.95 194.26 86.95C198.75 86.95 201.75 89.32 202.43 93.42H198.66C197.99 91.44 196.52 90.46 194.26 90.46C191.17 90.46 189.37 92.46 189.37 95.44C189.37 98.42 191.16 100.42 194.26 100.42C196.52 100.42 197.98 99.44 198.66 97.46V97.47Z" fill="#022778"/>
<path d="M219.87 90.69H209.79V93.99H219.49V97.02H209.79V100.18H219.87V103.58H205.93V87.29H219.87V90.69Z" fill="#022778"/>
<path d="M227.75 100.16H237.69V103.58H223.89V87.29H227.75V100.16Z" fill="#022778"/>
<path d="M242.24 101.54C240.66 99.93 239.87 97.89 239.87 95.44C239.87 92.99 240.66 90.97 242.24 89.37C243.82 87.77 245.96 86.95 248.66 86.95C251.36 86.95 253.52 87.76 255.11 89.37C256.7 90.98 257.48 93 257.48 95.44C257.48 97.88 256.69 99.93 255.11 101.54C253.53 103.15 251.39 103.94 248.66 103.94C245.93 103.94 243.82 103.15 242.24 101.54ZM253.58 95.44C253.58 92.46 251.81 90.46 248.67 90.46C245.53 90.46 243.78 92.46 243.78 95.44C243.78 98.42 245.57 100.42 248.67 100.42C251.77 100.42 253.58 98.42 253.58 95.44Z" fill="#022778"/>
<path d="M260.99 103.58V87.29H265.99L273.02 99.11H273.25L273.23 97.04V87.29H277.09V103.58H272.09L265.06 91.76H264.83L264.85 93.83V103.58H260.99Z" fill="#022778"/>
<path d="M294.09 103.58L293.18 101.44H284.85L283.94 103.58H279.91L286.91 87.29H291.08L298.11 103.58H294.08H294.09ZM286.13 98.37H291.88L289.02 91.58L286.13 98.37Z" fill="#022778"/>
</svg>
